<?xml version="1.0" encoding="utf-8"?>
<!-- Generator: Adobe Illustrator 26.0.1, SVG Export Plug-In . SVG Version: 6.00 Build 0)  -->
<svg version="1.1" id="Calque_1" xmlns="http://www.w3.org/2000/svg" xmlns:xlink="http://www.w3.org/1999/xlink" x="0px" y="0px"
	 viewBox="0 0 50 50" style="enable-background:new 0 0 50 50;" xml:space="preserve">
<style type="text/css">
	.st0{fill:#FFFFFF;}
</style>
<g>
	<path class="st0" d="M6,26c-0.1,0-0.2,0.1-0.2,0.2l-0.4,3.9l0.4,3.8C5.8,34,5.9,34,6,34c0,0,0.1,0,0.1-0.1l0.5-3.8l-0.5-3.9
		C6.1,26.1,6,26,6,26z"/>
	<path class="st0" d="M4.4,27.5c-0.1,0-0.2,0.1-0.2,0.2l-0.3,2.4l0.3,2.4c0,0.1,0.1,0.2,0.2,0.2s0.2-0.1,0.2-0.2L5,30.1l-0.4-2.4
		C4.5,27.6,4.4,27.5,4.4,27.5z"/>
	<path class="st0" d="M7.7,25.2c-0.1,0-0.2,0.1-0.2,0.2L7,30.1l0.4,4.4c0,0.1,0.1,0.2,0.2,0.2s0.2-0.1,0.2-0.2l0.5-4.4l-0.5-4.6
		C7.9,25.3,7.8,25.2,7.7,25.2z"/>
	<path class="st0" d="M9.4,25.1c-0.1,0-0.2,0.1-0.3,0.2L8.7,30l0.4,4.6c0,0.1,0.1,0.2,0.3,0.2c0.1,0,0.2-0.1,0.3-0.2l0.4-4.6
		l-0.4-4.7C9.6,25.2,9.5,25.1,9.4,25.1z"/>
	<path class="st0" d="M11.1,25.4c-0.2,0-0.3,0.1-0.3,0.3l-0.4,4.4l0.4,4.6c0,0.2,0.1,0.3,0.3,0.3s0.3-0.1,0.3-0.3l0.4-4.6l-0.4-4.4
		C11.4,25.5,11.3,25.4,11.1,25.4z"/>
	<path class="st0" d="M12.8,22.6c-0.2,0-0.3,0.1-0.3,0.3l-0.3,7.2l0.3,4.6c0,0.2,0.2,0.3,0.3,0.3s0.3-0.1,0.3-0.3l0.4-4.6l-0.4-7.2
		C13.2,22.7,13,22.6,12.8,22.6z"/>
	<path class="st0" d="M14.6,20.9c-0.2,0-0.4,0.2-0.4,0.4l-0.3,8.8l0.3,4.6c0,0.2,0.2,0.4,0.4,0.4s0.4-0.2,0.4-0.4l0.4-4.6L15,21.3
		C14.9,21.1,14.8,20.9,14.6,20.9z"/>
	<path class="st0" d="M16.4,20.1c-0.2,0-0.4,0.2-0.4,0.4L15.7,30l0.3,4.5c0,0.2,0.2,0.4,0.4,0.4s0.4-0.2,0.4-0.4l0.3-4.5l-0.3-9.5
		C16.8,20.3,16.6,20.1,16.4,20.1z"/>
	<path class="st0" d="M18.2,19.8c-0.2,0-0.4,0.2-0.4,0.4L17.5,30l0.3,4.5c0,0.2,0.2,0.4,0.4,0.4c0.2,0,0.4-0.2,0.4-0.4l0.3-4.5
		l-0.3-9.8C18.6,20,18.4,19.8,18.2,19.8z"/>
	<path class="st0" d="M19.9,20c-0.3,0-0.5,0.2-0.5,0.5l-0.2,9.6l0.2,4.5c0,0.3,0.2,0.5,0.5,0.5s0.5-0.2,0.5-0.5l0,0l0.3-4.5
		l-0.3-9.6C20.4,20.2,20.2,20,19.9,20z"/>
	<path class="st0" d="M21.8,20.3c-0.3,0-0.5,0.2-0.5,0.5L21,30.1l0.2,4.4c0,0.3,0.2,0.5,0.5,0.5s0.5-0.2,0.5-0.5l0,0l0.3-4.4
		l-0.3-9.2C22.3,20.5,22,20.3,21.8,20.3z"/>
	<path class="st0" d="M23.9,18.6c-0.1-0.1-0.2-0.1-0.3-0.1c-0.1,0-0.2,0-0.3,0.1c-0.2,0.1-0.2,0.3-0.3,0.5v0.1l-0.2,10.9l0.2,4.4
		l0,0c0,0.1,0.1,0.2,0.1,0.3c0.1,0.1,0.3,0.2,0.4,0.2c0.2,0,0.3-0.1,0.4-0.2s0.2-0.2,0.2-0.4V34l0.2-4l-0.2-11
		C24.1,18.9,24,18.7,23.9,18.6z"/>
	<path class="st0" d="M25.7,17.6c-0.1-0.1-0.2-0.1-0.3-0.1c-0.1,0-0.3,0-0.4,0.1s-0.2,0.3-0.2,0.4v0.1L24.6,30l0.1,2.2l0.1,2.1
		c0,0.3,0.3,0.6,0.6,0.6c0.3,0,0.6-0.3,0.6-0.6l0,0l0.3-4.4l-0.3-12C26,17.9,25.9,17.7,25.7,17.6z"/>
	<path class="st0" d="M41.8,24.4c-0.7,0-1.4,0.1-2.1,0.4c-0.4-4.8-4.4-8.6-9.4-8.6c-1.2,0-2.4,0.2-3.4,0.6c-0.4,0.2-0.5,0.3-0.5,0.6
		v16.9c0,0.3,0.3,0.6,0.6,0.6h14.8c2.9,0,5.3-2.4,5.3-5.3C47.1,26.8,44.8,24.4,41.8,24.4z"/>
</g>
</svg>
